<svg width="393" height="300" viewBox="0 0 393 300" fill="none" xmlns="http://www.w3.org/2000/svg">
<path d="M234.784 4C300.784 71 257.284 126.5 184.207 120.121C77.3413 110.792 20.2671 74.2915 -52.7164 132.5C-125.7 190.708 31.7836 295 207.784 295" stroke="#37B4B0" stroke-width="9"/>
<path d="M184 294.832C256.424 294.832 226.695 294.273 244.354 294.832V282.09L238.989 272.031H292.637V294.832L298.672 288.461V253.59L292.637 238.501H298.672V202.289L295.654 194.577L302.025 191.224V176.471L295.654 173.454V160.042L320.466 150.653M320.466 150.653V124.5M320.466 150.653L345.278 160.042V173.454L341.59 176.471V191.224L345.278 194.577L343.267 204.636L345.278 238.501H352.32L345.278 253.59V288.461L352.32 294.832V272.031H403.956L399.932 282.09V294.832H533.046" stroke="#37B4B0" stroke-width="9" stroke-linecap="round" stroke-linejoin="round"/>
<circle cx="321.472" cy="209.33" r="7.71186" stroke="#37B4B0" stroke-width="9"/>
</svg>
